#!OML:ASF X:\für Bonn\!DataBase\2005_08_10_Bjorn_Final\c3d\bjorn.ASF
:FULLY-SPECIFIED
:DEGREES
91
root 0.503642 8.61267 3.73141 -185.316 -0.997832 -181.74
lowerback 27.6342 2.02023 4.71763
upperback 14.1551 -0.281069 0.305171
thorax 0.704482 -1.53394 -2.30081
lowerneck -25.7413 -0.488104 1.51945
upperneck 2.11585 -1.6317 -3.78468
head 4.56001 -1.43068 -1.66154
rclavicle 1.63003e-014 -1.19271e-015
rhumerus 80.401 2.00168 -82.5083
rradius 4.27403
rwrist 52.3343
rhand -20.4382 11.3051
rfingers 7.12502
rthumb 5.91674 -18.5923
lclavicle 1.63003e-014 -1.19271e-015
lhumerus 78.1802 -10.0758 85.2522
lradius 3.12067
lwrist -65.3107
lhand -28.5873 -6.95111
lfingers 7.12502
lthumb -1.95315 23.0197
rfemur -49.4239 -83.5641 -35.4834
rtibia 149.28
rfoot -54.7245 57.0086
rtoes -31.0463
lfemur -81.5257 60.53 -13.7637
ltibia 151.381
lfoot -41.6136 -27.0775
ltoes -35.8463
92
root 0.503014 8.50597 3.71175 -185.585 -1.01035 -181.731
lowerback 27.7307 2.02823 4.78715
upperback 14.2296 -0.291872 0.356709
thorax 0.74939 -1.55282 -2.28257
lowerneck -25.732 -0.460189 1.56685
upperneck 2.06733 -1.6101 -3.8466
head 4.5434 -1.42611 -1.68619
rclavicle -8.74653e-015 3.57812e-015
rhumerus 80.2204 2.07833 -82.3842
rradius 4.44205
rwrist 52.1117
rhand -20.2607 11.2398
rfingers 7.12502
rthumb 6.0881 -18.6527
lclavicle -8.74653e-015 3.57812e-015
lhumerus 78.0095 -10.061 85.315
lradius 3.36904
lwrist -65.3326
lhand -28.34 -6.95197
lfingers 7.12502
lthumb -1.71429 23.0209
rfemur -21.129 -85.1721 -64.9926
rtibia 150.064
rfoot -57.7956 57.497
rtoes -31.4885
lfemur -81.3608 59.4195 -12.9696
ltibia 152.188
lfoot -41.3838 -26.7195
ltoes -36.0962
93
root 0.501912 8.41213 3.6928 -185.804 -1.03776 -181.764
lowerback 27.7845 2.02646 4.83079
upperback 14.2986 -0.316646 0.376343
thorax 0.80524 -1.57532 -2.28118
lowerneck -25.6557 -0.411136 1.6425
upperneck 1.94682 -1.57363 -3.90368
head 4.49484 -1.41373 -1.7106
rclavicle -6.36111e-015 1.27222e-014
rhumerus 80.0736 2.14163 -82.2875
rradius 4.52841
rwrist 51.9487
rhand -20.2636 11.2121
rfingers 7.12502
rthumb 6.08531 -18.6805
lclavicle -6.36111e-015 1.27222e-014
lhumerus 77.6759 -10.0621 85.3618
lradius 3.9304
lwrist -65.363
lhand -27.9802 -6.84696
lfingers 7.12502
lthumb -1.36675 23.1284
rfemur 11.2763 -85.0692 -98.5982
rtibia 150.76
rfoot -60.4944 57.8489
rtoes -31.823
lfemur -81.3013 58.3021 -12.4517
ltibia 152.893
lfoot -41.2392 -26.1686
ltoes -36.5133
94
root 0.500342 8.3348 3.67435 -185.962 -1.03948 -181.762
lowerback 27.82 2.01917 4.90299
upperback 14.3374 -0.328412 0.399143
thorax 0.836521 -1.58542 -2.29521
lowerneck -25.6015 -0.376876 1.71258
upperneck 1.89316 -1.54619 -3.98153
head 4.47049 -1.40563 -1.74263
rclavicle 2.14687e-014 -4.77083e-015
rhumerus 79.935 2.23408 -82.1969
rradius 4.52967
rwrist 51.8191
rhand -20.4719 11.1919
rfingers 7.12502
rthumb 5.88423 -18.7064
lclavicle 2.14687e-014 -4.77083e-015
lhumerus 77.2957 -10.0685 85.4139
lradius 4.54738
lwrist -65.482
lhand -27.5088 -6.65496
lfingers 7.12502
lthumb -0.911486 23.3228
rfemur 31.3451 -83.942 -119.652
rtibia 151.334
rfoot -62.7197 58.1529
rtoes -32.0008
lfemur -81.3266 57.2126 -12.0363
ltibia 153.486
lfoot -41.0959 -25.6239
ltoes -37.085
95
root 0.498604 8.27885 3.65609 -186.101 -1.05228 -181.779
lowerback 27.8875 2.00938 4.9776
upperback 14.3612 -0.336742 0.414658
thorax 0.836313 -1.59255 -2.31852
lowerneck -25.548 -0.363319 1.72985
upperneck 1.83456 -1.53354 -4.02868
head 4.44462 -1.40334 -1.75798
rclavicle 7.95139e-016 -3.97569e-016
rhumerus 79.8442 2.28828 -82.0905
rradius 4.42402
rwrist 51.8114
rhand -20.8742 11.1662
rfingers 7.12502
rthumb 5.49577 -18.7426
lclavicle 7.95139e-016 -3.97569e-016
lhumerus 77.1272 -10.0739 85.451
lradius 4.78827
lwrist -65.6389
lhand -27.1541 -6.42575
lfingers 7.12502
lthumb -0.568929 23.5532
rfemur 40.9779 -82.6608 -130.065
rtibia 151.761
rfoot -64.6171 58.1652
rtoes -32.3619
lfemur -81.218 56.1151 -11.6985
ltibia 153.922
lfoot -40.9742 -25.1439
ltoes -37.4058
96
root 0.496743 8.24071 3.63897 -186.18 -1.05314 -181.778
lowerback 27.9426 1.99177 5.05586
upperback 14.3693 -0.347475 0.431928
thorax 0.823612 -1.59838 -2.341
lowerneck -25.57 -0.333125 1.75916
upperneck 1.79804 -1.50616 -4.07001
head 4.43664 -1.39527 -1.77312
rclavicle -9.54166e-015 -3.57812e-014
rhumerus 79.7855 2.37509 -81.9911
rradius 4.2579
rwrist 51.9303
rhand -21.4958 11.1345
rfingers 7.12502
rthumb 4.89564 -18.7889
lclavicle -9.54166e-015 -3.57812e-014
lhumerus 77.1772 -10.0417 85.4591
lradius 4.67912
lwrist -65.8509
lhand -26.907 -6.13622
lfingers 7.12502
lthumb -0.330293 23.8433
rfemur 45.8251 -81.6593 -135.446
rtibia 152.045
rfoot -65.83 58.2986
rtoes -32.402
lfemur -81.1798 55.0381 -11.5187
ltibia 154.226
lfoot -40.8267 -24.5661
ltoes -37.8555
97
root 0.494823 8.22039 3.62295 -186.202 -1.05376 -181.775
lowerback 27.9972 1.9718 5.17744
upperback 14.3421 -0.333346 0.423465
thorax 0.773737 -1.58266 -2.4216
lowerneck -25.6567 -0.320442 1.83283
upperneck 1.84493 -1.50633 -4.13633
head 4.46302 -1.40074 -1.80775
rclavicle 2.0276e-014 2.8625e-014
rhumerus 79.6893 2.38023 -81.9078
rradius 4.15298
rwrist 52.154
rhand -22.0385 11.0365
rfingers 7.12502
rthumb 4.37154 -18.8984
lclavicle 2.0276e-014 2.8625e-014
lhumerus 77.2344 -10.0558 85.4461
lradius 4.53718
lwrist -66.1538
lhand -26.7264 -5.78448
lfingers 7.12502
lthumb -0.155793 24.1952
rfemur 48.2105 -81.0136 -138.133
rtibia 152.202
rfoot -66.5801 58.3635
rtoes -32.5083
lfemur -81.1676 53.9716 -11.4753
ltibia 154.407
lfoot -40.7467 -23.9094
ltoes -38.4895
98
root 0.492455 8.21457 3.60741 -186.18 -1.0444 -181.797
lowerback 28.0396 1.95411 5.21981
upperback 14.3083 -0.333262 0.442656
thorax 0.717367 -1.57943 -2.4231
lowerneck -25.8997 -0.297198 1.8329
upperneck 1.99017 -1.47022 -4.21329
head 4.54401 -1.39321 -1.83361
rclavicle -3.02153e-014 -1.19271e-015
rhumerus 79.6888 2.47435 -81.7808
rradius 4.02145
rwrist 52.4648
rhand -22.5491 10.9668
rfingers 7.12502
rthumb 3.87851 -18.9777
lclavicle -3.02153e-014 -1.19271e-015
lhumerus 77.288 -10.0278 85.4786
lradius 4.38746
lwrist -66.4596
lhand -26.6215 -5.39118
lfingers 7.12502
lthumb -0.054543 24.5886
rfemur 49.4273 -80.6217 -139.537
rtibia 152.256
rfoot -66.892 58.6319
rtoes -32.1593
lfemur -81.1587 52.9262 -11.5646
ltibia 154.482
lfoot -40.5985 -23.3578
ltoes -38.8425
99
root 0.48962 8.2239 3.59321 -186.111 -1.04417 -181.796
lowerback 28.0127 1.92494 5.29596
upperback 14.2742 -0.336439 0.451717
thorax 0.692914 -1.57154 -2.45503
lowerneck -26.1045 -0.268493 1.84953
upperneck 2.10132 -1.43483 -4.26391
head 4.60879 -1.38342 -1.85281
rclavicle 2.78299e-014 9.54166e-015
rhumerus 79.6667 2.54306 -81.6752
rradius 4.02394
rwrist 52.7772
rhand -22.8166 10.8198
rfingers 7.12502
rthumb 3.62023 -19.1292
lclavicle 2.78299e-014 9.54166e-015
lhumerus 77.2886 -10.0055 85.4917
lradius 4.30672
lwrist -66.7126
lhand -26.5995 -5.04076
lfingers 7.12502
lthumb -0.0332385 24.939
rfemur 49.6623 -80.5481 -139.754
rtibia 152.219
rfoot -66.8784 58.7688
rtoes -32.021
lfemur -81.2087 51.8796 -11.7623
ltibia 154.454
lfoot -40.3707 -22.8191
ltoes -39.1269
100
root 0.486416 8.24746 3.58003 -186.001 -1.04164 -181.8
lowerback 27.8866 1.91729 5.36459
upperback 14.258 -0.316419 0.46603
thorax 0.735564 -1.54938 -2.48486
lowerneck -26.2756 -0.25974 1.89689
upperneck 2.18231 -1.43347 -4.35753
head 4.65799 -1.39335 -1.89372
rclavicle 1.47101e-014 -4.37326e-015
rhumerus 79.6487 2.56584 -81.5538
rradius 4.09189
rwrist 53.0626
rhand -22.8457 10.655
rfingers 7.12502
rthumb 3.59207 -19.2944
lclavicle 1.47101e-014 -4.37326e-015
lhumerus 77.2409 -10.0184 85.522
lradius 4.28645
lwrist -66.8629
lhand -26.7675 -4.80583
lfingers 7.12502
lthumb -0.195572 25.1738
rfemur 48.9693 -80.7456 -138.912
rtibia 152.09
rfoot -66.484 58.9914
rtoes -31.774
lfemur -81.2362 50.8431 -12.0486
ltibia 154.326
lfoot -40.185 -22.1937
ltoes -39.5038
101
root 0.483253 8.28673 3.56838 -185.843 -1.02978 -181.821
lowerback 27.7148 1.90296 5.39165
upperback 14.2155 -0.302501 0.46991
thorax 0.766039 -1.52708 -2.50051
lowerneck -26.3824 -0.22573 1.95738
upperneck 2.27417 -1.39602 -4.44083
head 4.70304 -1.38142 -1.92856
rclavicle -6.75868e-015 -1.39149e-014
rhumerus 79.6098 2.62852 -81.4512
rradius 4.16586
rwrist 53.2151
rhand -22.6568 10.5185
rfingers 7.12502
rthumb 3.77453 -19.4278
lclavicle -6.75868e-015 -1.39149e-014
lhumerus 77.0869 -10.0316 85.5523
lradius 4.37124
lwrist -66.8555
lhand -26.9979 -4.55738
lfingers 7.12502
lthumb -0.418097 25.422
rfemur 46.9777 -81.3093 -136.584
rtibia 151.863
rfoot -65.677 59.0799
rtoes -31.6296
lfemur -81.2412 49.824 -12.415
ltibia 154.072
lfoot -39.9327 -21.7091
ltoes -39.7425
102
root 0.479185 8.34922 3.55749 -185.662 -1.02759 -181.826
lowerback 27.5424 1.88889 5.44077
upperback 14.1553 -0.274669 0.482608
thorax 0.778544 -1.49464 -2.52204
lowerneck -26.4062 -0.218512 1.98618
upperneck 2.29309 -1.38931 -4.50536
head 4.71245 -1.3832 -1.95381
rclavicle -2.18663e-014 -9.54166e-015
rhumerus 79.589 2.64581 -81.3241
rradius 4.13719
rwrist 53.229
rhand -22.3654 10.4082
rfingers 7.12502
rthumb 4.0559 -19.5329
lclavicle -2.18663e-014 -9.54166e-015
lhumerus 76.9037 -10.0826 85.6054
lradius 4.53549
lwrist -66.7552
lhand -27.1759 -4.46462
lfingers 7.12502
lthumb -0.590005 25.5143
rfemur 42.147 -82.2376 -131.131
rtibia 151.472
rfoot -64.2483 59.1538
rtoes -31.233
lfemur -81.1717 48.798 -12.8499
ltibia 153.664
lfoot -39.6471 -21.2087
ltoes -39.8338
